HIERARCHY
ROOT Hips
{
	OFFSET 0.000000 0.000000 0.000000
	CHANNELS 6 Xposition Yposition Zposition Xrotation Yrotation Zrotation
	JOINT LeftUpLeg_virtual
	{
		OFFSET 0.000000 0.000000 0.000000
		CHANNELS 3 Xrotation Yrotation Zrotation
		JOINT LeftUpLeg
		{
			OFFSET 10.205400 -3.823500 0.155100
			CHANNELS 3 Xrotation Yrotation Zrotation
			JOINT LeftLeg
			{
				OFFSET 0.708757 -12.982077 0.567790
				CHANNELS 3 Xrotation Yrotation Zrotation
				JOINT LeftFoot
				{
					OFFSET -0.708756 -10.717838 -2.184338
					CHANNELS 3 Xrotation Yrotation Zrotation
					JOINT LeftToeBase
					{
						OFFSET 0.108149 -7.191104 7.560241
						CHANNELS 3 Xrotation Yrotation Zrotation
						JOINT LeftToe_End
						{
							OFFSET 0.070230 0.081724 4.490308
							CHANNELS 3 Xrotation Yrotation Zrotation
							End Site
							{
								OFFSET 0 0 0
							}
						}
					}
				}
			}
		}
	}
	JOINT RightUpLeg_virtual
	{
		OFFSET 0.000000 0.000000 0.000000
		CHANNELS 3 Xrotation Yrotation Zrotation
		JOINT RightUpLeg
		{
			OFFSET -10.205400 -3.823500 0.005500
			CHANNELS 3 Xrotation Yrotation Zrotation
			JOINT RightLeg
			{
				OFFSET -0.708756 -12.982134 0.610632
				CHANNELS 3 Xrotation Yrotation Zrotation
				JOINT RightFoot
				{
					OFFSET 0.708754 -10.717769 -1.945823
					CHANNELS 3 Xrotation Yrotation Zrotation
					JOINT RightToeBase
					{
						OFFSET -0.108140 -7.191069 7.372968
						CHANNELS 3 Xrotation Yrotation Zrotation
						JOINT RightToe_End
						{
							OFFSET -0.070227 0.081735 4.479403
							CHANNELS 3 Xrotation Yrotation Zrotation
							End Site
							{
								OFFSET 0 0 0
							}
						}
					}
				}
			}
		}
	}
	JOINT Spine_virtual
	{
		OFFSET 0.000000 0.000000 0.000000
		CHANNELS 3 Xrotation Yrotation Zrotation
		JOINT Spine
		{
			OFFSET 0.000000 6.876099 0.125700
			CHANNELS 3 Xrotation Yrotation Zrotation
			JOINT Spine1
			{
				OFFSET 0.000000 5.730043 0.104720
				CHANNELS 3 Xrotation Yrotation Zrotation
				JOINT Spine1_split
				{
					OFFSET 0.000000 5.730043 0.104720
					CHANNELS 3 Xrotation Yrotation Zrotation
					JOINT Spine2
					{
						OFFSET 0.000000 5.730043 0.104720
						CHANNELS 3 Xrotation Yrotation Zrotation
						JOINT Neck_virtual
						{
							OFFSET 0.000000 0.000000 0.000000
							CHANNELS 3 Xrotation Yrotation Zrotation
							JOINT Neck
							{
								OFFSET 0.000000 10.314075 0.188496
								CHANNELS 3 Xrotation Yrotation Zrotation
								JOINT Head
								{
									OFFSET 0.000000 7.643700 -2.377400
									CHANNELS 3 Xrotation Yrotation Zrotation
									JOINT HeadTop_End
									{
										OFFSET 0.000000 43.788605 -13.619600
										CHANNELS 3 Xrotation Yrotation Zrotation
										End Site
										{
											OFFSET 0 0 0
										}
									}
								}
							}
						}
						JOINT LeftShoulder_virtual
						{
							OFFSET 0.000000 0.000000 0.000000
							CHANNELS 3 Xrotation Yrotation Zrotation
							JOINT LeftShoulder
							{
								OFFSET 2.196100 4.412489 0.087492
								CHANNELS 3 Xrotation Yrotation Zrotation
								JOINT LeftShoulder_split
								{
									OFFSET 2.196100 4.412489 0.087492
									CHANNELS 3 Xrotation Yrotation Zrotation
									JOINT LeftArm
									{
										OFFSET 8.771219 -2.981674 -0.026999
										CHANNELS 3 Xrotation Yrotation Zrotation
										JOINT LeftForeArm
										{
											OFFSET 8.512804 0.000000 -0.000000
											CHANNELS 3 Xrotation Yrotation Zrotation
											JOINT LeftHand
											{
												OFFSET 18.484802 0.000000 -0.000000
												CHANNELS 3 Xrotation Yrotation Zrotation
												End Site
												{
													OFFSET 0 0 0
												}
											}
										}
									}
								}
							}
						}
						JOINT RightShoulder_virtual
						{
							OFFSET 0.000000 0.000000 0.000000
							CHANNELS 3 Xrotation Yrotation Zrotation
							JOINT RightShoulder
							{
								OFFSET -2.196100 4.412496 0.070690
								CHANNELS 3 Xrotation Yrotation Zrotation
								JOINT RightShoulder_split
								{
									OFFSET -2.196100 4.412496 0.070690
									CHANNELS 3 Xrotation Yrotation Zrotation
									JOINT RightArm
									{
										OFFSET -8.771282 -2.981682 -0.094208
										CHANNELS 3 Xrotation Yrotation Zrotation
										JOINT RightForeArm
										{
											OFFSET -8.494598 0.000000 0.000000
											CHANNELS 3 Xrotation Yrotation Zrotation
											JOINT RightHand
											{
												OFFSET -18.483803 0.000000 0.000001
												CHANNELS 3 Xrotation Yrotation Zrotation
												End Site
												{
													OFFSET 0 0 0
												}
											}
										}
									}
								}
							}
						}
					}
				}
			}
		}
	}
}
MOTION
Frames: 5
Frame Time: 0.03333333
-2.947270 31.028160 17.705990 0.000000 0.000000 0.000000 27.500664 3.716121 -21.607872 -77.609268 -1.839719 12.360993 23.280556 9.298731 -2.666514 21.395308 0.377913 10.969985 -0.022875 0.051835 -0.788186 0.000000 0.000000 0.000000 29.129698 3.043624 -19.647717 17.621673 -23.618210 -14.056210 69.878593 3.088701 -2.795790 15.615015 0.209651 13.456076 -1.620987 -0.424281 0.056644 0.000000 0.000000 0.000000 32.493098 6.952171 -21.516073 6.464236 11.937670 -7.270920 12.646726 11.390574 -8.322973 -0.198948 2.144797 -0.427291 0.000000 0.000000 0.000000 11.845151 11.346577 -8.237466 -10.276144 -7.298814 6.454697 -39.006223 -31.783401 13.735985 0.000000 0.000000 0.000000 12.688892 11.020585 -7.435802 -0.627330 5.054259 1.757652 0.463645 -0.210167 2.049303 27.135645 -42.453007 -18.709230 3.349180 -20.802188 0.011488 0.000000 0.000000 0.000000 11.309248 11.500420 -8.002274 5.855767 19.315821 -8.794930 2.165188 -0.826056 0.342289 4.413946 60.924072 9.167294 0.834358 63.640902 -0.529315 0.000000 0.000000 0.000000 
-3.144267 30.901230 18.251200 0.000000 0.000000 0.000000 25.606147 5.175725 -20.978069 -77.734854 -1.552692 13.392174 28.920302 8.251900 -3.832670 16.499369 0.695595 10.904147 -0.169250 0.056128 -0.785824 0.000000 0.000000 0.000000 27.307737 4.866501 -19.591995 12.451218 -23.240509 -13.578630 67.939673 3.507703 -3.257833 16.577494 -0.213154 9.675003 -0.860297 -0.397707 0.059694 0.000000 0.000000 0.000000 30.571729 8.430485 -21.151986 6.460064 9.974383 -7.848181 12.820205 10.700789 -8.396524 -0.369386 1.927281 -0.502261 0.000000 0.000000 0.000000 12.116553 10.583113 -8.279251 -10.595099 -7.181899 6.232972 -38.484954 -31.136162 14.323633 0.000000 0.000000 0.000000 13.122762 10.086416 -7.443934 -0.661840 4.921627 2.588047 0.362374 0.034890 2.135303 25.034318 -45.699840 -12.476857 2.972495 -18.392692 -0.193687 0.000000 0.000000 0.000000 11.609478 10.605167 -8.049342 5.311769 18.441581 -7.569911 1.795422 -0.973778 -0.374743 1.410164 54.354939 6.498794 0.834358 63.640902 -0.529315 0.000000 0.000000 0.000000 
-3.251770 30.855326 18.855412 0.000000 0.000000 0.000000 23.564255 6.098754 -20.477841 -77.155217 -1.195656 14.565764 34.325751 6.894301 -4.566943 12.070334 1.177698 10.482758 -0.296132 0.115874 -0.974820 0.000000 0.000000 0.000000 25.399563 6.541393 -19.421023 7.318446 -22.872260 -13.393009 65.629170 4.648560 -3.639264 17.340935 -0.708491 6.549612 -0.173829 -0.322080 -0.704515 0.000000 0.000000 0.000000 28.554948 9.698287 -20.879926 6.482849 8.163909 -8.437314 13.045457 9.716274 -8.444153 -0.478187 1.594663 -0.576099 0.000000 0.000000 0.000000 12.457038 9.525224 -8.334774 -10.969911 -6.968382 6.019699 -37.810691 -29.950417 15.124436 0.000000 0.000000 0.000000 13.522043 8.876491 -7.434889 -0.621705 4.741713 3.420427 0.169997 0.383164 2.296971 20.662149 -48.991922 -8.040220 3.014069 -16.282705 0.037927 0.000000 0.000000 0.000000 11.875712 9.461466 -8.062299 4.883604 17.243945 -7.460002 1.521742 -0.876579 -0.558995 -2.286130 48.616713 4.468588 0.834358 63.640902 -0.529315 0.000000 0.000000 0.000000 
-3.288290 30.854778 19.505177 0.000000 0.000000 0.000000 21.507992 6.891493 -20.075900 -76.010238 -0.852971 15.782189 39.343867 5.436023 -4.784871 8.012900 1.548715 9.703416 -0.124099 0.176238 -1.167513 0.000000 0.000000 0.000000 23.394552 8.039961 -19.224189 2.301991 -22.784743 -13.653075 62.731367 6.101382 -4.106448 17.546877 -1.188937 4.386752 -0.002966 -0.248401 -1.681855 0.000000 0.000000 0.000000 26.457882 10.629689 -20.637929 6.520341 6.424476 -9.057378 13.352713 8.272724 -8.425233 -0.481753 1.124092 -0.643840 0.000000 0.000000 0.000000 12.857884 8.064901 -8.330138 -11.339898 -6.591976 5.804431 -36.926325 -28.040216 16.176207 0.000000 0.000000 0.000000 13.877391 7.343719 -7.374799 -0.514306 4.466194 4.127234 -0.208499 0.767466 2.589900 13.735195 -51.880648 -5.824900 3.319855 -14.491450 0.445458 0.000000 0.000000 0.000000 12.143528 7.996693 -7.942109 4.560436 15.967089 -8.344069 1.405738 -0.623155 -0.456575 -6.203113 44.026832 2.792115 0.834358 63.640902 -0.529315 0.000000 0.000000 0.000000 
-3.281301 30.887379 20.196346 0.000000 0.000000 0.000000 19.592001 7.446287 -19.783858 -74.536065 -0.591650 17.149881 44.014347 4.057929 -4.553762 3.953588 1.701376 8.587982 0.351387 0.193029 -1.096760 0.000000 0.000000 0.000000 21.307035 9.152553 -19.093548 -2.433085 -23.212104 -14.301573 58.855119 7.573275 -4.710438 17.052792 -1.391050 3.424095 -0.651423 -0.226097 -1.778235 0.000000 0.000000 0.000000 24.224171 10.955711 -20.351223 6.537642 4.731031 -9.684337 13.691188 6.384685 -8.297082 -0.447252 0.486687 -0.725503 0.000000 0.000000 0.000000 13.271968 6.189749 -8.196219 -11.655423 -6.029293 5.564740 -35.824704 -25.433575 17.416043 0.000000 0.000000 0.000000 14.170278 5.510082 -7.227075 -0.364616 4.111055 4.672426 -0.447234 1.244816 2.962850 4.717527 -54.071637 -5.818674 3.456496 -13.047216 0.692243 0.000000 0.000000 0.000000 12.431747 6.215363 -7.665335 4.407282 14.902324 -10.070573 1.313408 -0.334474 -0.237008 -10.162072 40.841642 1.447661 0.834358 63.640902 -0.529315 0.000000 0.000000 0.000000 
